<mxfile host="app.diagrams.net" modified="2023-09-29T08:35:28.416Z" agent="Mozilla/5.0 (Macintosh; Intel Mac OS X 10_15_7) AppleWebKit/537.36 (KHTML, like Gecko) Chrome/116.0.0.0 Safari/537.36" etag="ulMwY4WkNh-oylqBiZ50" version="21.7.2" type="github" pages="4">
  <diagram id="xsvHOerj5issGatHpZT5" name="Workflow">
    <mxGraphModel dx="954" dy="517" grid="1" gridSize="10" guides="1" tooltips="1" connect="1" arrows="1" fold="1" page="1" pageScale="1" pageWidth="850" pageHeight="1100" math="0" shadow="0">
      <root>
        <mxCell id="0" />
        <mxCell id="1" parent="0" />
        <mxCell id="PLNEJdDWaDKpQb-ZOKgj-1" value="Implement Stop function" style="text;html=1;align=center;verticalAlign=middle;resizable=0;points=[];autosize=1;strokeColor=none;fillColor=none;" parent="1" vertex="1">
          <mxGeometry x="55" y="38" width="150" height="30" as="geometry" />
        </mxCell>
        <mxCell id="UiyyOWNBt2xxmdsC-k5m-1" value="Rabbit Producer - Produce function&lt;br&gt;Make it receive a parameter to send&lt;br&gt;&lt;br&gt;Activate the function in Load Balancer" style="text;html=1;align=center;verticalAlign=middle;resizable=0;points=[];autosize=1;strokeColor=none;fillColor=none;" parent="1" vertex="1">
          <mxGeometry x="285" y="18" width="220" height="70" as="geometry" />
        </mxCell>
        <mxCell id="UiyyOWNBt2xxmdsC-k5m-2" value="Create a docker container that has an elastic service, try sending requests to it&lt;br&gt;&lt;br&gt;Try to create Kibana on the same docker as well&amp;nbsp;" style="text;html=1;align=center;verticalAlign=middle;resizable=0;points=[];autosize=1;strokeColor=none;fillColor=none;" parent="1" vertex="1">
          <mxGeometry x="190" y="95" width="440" height="60" as="geometry" />
        </mxCell>
        <mxCell id="UiyyOWNBt2xxmdsC-k5m-3" value="Docker File" style="rounded=0;whiteSpace=wrap;html=1;" parent="1" vertex="1">
          <mxGeometry x="240" y="240" width="280" height="320" as="geometry" />
        </mxCell>
        <mxCell id="UiyyOWNBt2xxmdsC-k5m-4" value="API" style="ellipse;whiteSpace=wrap;html=1;aspect=fixed;" parent="1" vertex="1">
          <mxGeometry x="270" y="270" width="80" height="80" as="geometry" />
        </mxCell>
        <mxCell id="UiyyOWNBt2xxmdsC-k5m-5" value="MS_DB" style="ellipse;whiteSpace=wrap;html=1;" parent="1" vertex="1">
          <mxGeometry x="420" y="270" width="80" height="80" as="geometry" />
        </mxCell>
        <mxCell id="UiyyOWNBt2xxmdsC-k5m-6" value="Redis" style="ellipse;whiteSpace=wrap;html=1;aspect=fixed;" parent="1" vertex="1">
          <mxGeometry x="250" y="435" width="80" height="80" as="geometry" />
        </mxCell>
        <mxCell id="UiyyOWNBt2xxmdsC-k5m-7" value="RabbitMq" style="ellipse;whiteSpace=wrap;html=1;aspect=fixed;" parent="1" vertex="1">
          <mxGeometry x="340" y="435" width="80" height="80" as="geometry" />
        </mxCell>
        <mxCell id="UiyyOWNBt2xxmdsC-k5m-9" value="&lt;br&gt;Elasitc&amp;nbsp;&lt;br&gt;+&amp;nbsp;&lt;br&gt;Kibana" style="strokeWidth=2;html=1;shape=mxgraph.flowchart.database;whiteSpace=wrap;" parent="1" vertex="1">
          <mxGeometry x="430" y="430" width="70" height="90" as="geometry" />
        </mxCell>
        <mxCell id="UiyyOWNBt2xxmdsC-k5m-10" value="Actor" style="shape=umlActor;verticalLabelPosition=bottom;verticalAlign=top;html=1;outlineConnect=0;" parent="1" vertex="1">
          <mxGeometry x="90" y="280" width="30" height="60" as="geometry" />
        </mxCell>
        <mxCell id="UiyyOWNBt2xxmdsC-k5m-11" value="" style="endArrow=classic;html=1;rounded=0;entryX=0;entryY=0.5;entryDx=0;entryDy=0;" parent="1" target="UiyyOWNBt2xxmdsC-k5m-4" edge="1">
          <mxGeometry width="50" height="50" relative="1" as="geometry">
            <mxPoint x="105" y="310" as="sourcePoint" />
            <mxPoint x="450" y="330" as="targetPoint" />
          </mxGeometry>
        </mxCell>
        <mxCell id="UiyyOWNBt2xxmdsC-k5m-13" value="" style="endArrow=classic;html=1;rounded=0;entryX=1;entryY=0.5;entryDx=0;entryDy=0;entryPerimeter=0;exitX=0.5;exitY=0.5;exitDx=0;exitDy=0;exitPerimeter=0;" parent="1" source="UiyyOWNBt2xxmdsC-k5m-14" target="UiyyOWNBt2xxmdsC-k5m-9" edge="1">
          <mxGeometry width="50" height="50" relative="1" as="geometry">
            <mxPoint x="650" y="470" as="sourcePoint" />
            <mxPoint x="450" y="330" as="targetPoint" />
          </mxGeometry>
        </mxCell>
        <mxCell id="UiyyOWNBt2xxmdsC-k5m-14" value="Actor" style="shape=umlActor;verticalLabelPosition=bottom;verticalAlign=top;html=1;outlineConnect=0;" parent="1" vertex="1">
          <mxGeometry x="640" y="445" width="30" height="60" as="geometry" />
        </mxCell>
        <mxCell id="CS-IZmLpS_k18kX6BdnD-1" value="JSON" style="text;html=1;align=center;verticalAlign=middle;resizable=0;points=[];autosize=1;strokeColor=none;fillColor=none;" parent="1" vertex="1">
          <mxGeometry x="360" y="200" width="60" height="30" as="geometry" />
        </mxCell>
      </root>
    </mxGraphModel>
  </diagram>
  <diagram id="R2lEEEUBdFMjLlhIrx00" name="General Architecture">
    <mxGraphModel dx="954" dy="517" grid="1" gridSize="10" guides="1" tooltips="1" connect="1" arrows="1" fold="1" page="1" pageScale="1" pageWidth="850" pageHeight="1100" math="0" shadow="0" extFonts="Permanent Marker^https://fonts.googleapis.com/css?family=Permanent+Marker">
      <root>
        <mxCell id="0" />
        <mxCell id="1" parent="0" />
        <mxCell id="rQFfe7TnXv0fW4QJecJ0-2" value="" style="endArrow=classic;html=1;rounded=0;entryX=0.5;entryY=0;entryDx=0;entryDy=0;entryPerimeter=0;" parent="1" target="rQFfe7TnXv0fW4QJecJ0-56" edge="1">
          <mxGeometry width="50" height="50" relative="1" as="geometry">
            <mxPoint x="420" y="80" as="sourcePoint" />
            <mxPoint x="420" y="160" as="targetPoint" />
          </mxGeometry>
        </mxCell>
        <mxCell id="rQFfe7TnXv0fW4QJecJ0-3" value="Receive REST requests from user" style="text;html=1;align=center;verticalAlign=middle;resizable=0;points=[];autosize=1;strokeColor=none;fillColor=none;" parent="1" vertex="1">
          <mxGeometry x="315" y="50" width="210" height="30" as="geometry" />
        </mxCell>
        <mxCell id="rQFfe7TnXv0fW4QJecJ0-6" value="Using Redis Queue" style="rounded=0;whiteSpace=wrap;html=1;" parent="1" vertex="1">
          <mxGeometry x="120" y="400" width="120" height="60" as="geometry" />
        </mxCell>
        <mxCell id="rQFfe7TnXv0fW4QJecJ0-7" value="Using RabbitMQ" style="rounded=0;whiteSpace=wrap;html=1;" parent="1" vertex="1">
          <mxGeometry x="600" y="400" width="120" height="60" as="geometry" />
        </mxCell>
        <mxCell id="rQFfe7TnXv0fW4QJecJ0-11" value="" style="endArrow=classic;html=1;rounded=0;exitX=0.5;exitY=1;exitDx=0;exitDy=0;entryX=0.5;entryY=0;entryDx=0;entryDy=0;exitPerimeter=0;" parent="1" source="rQFfe7TnXv0fW4QJecJ0-56" target="rQFfe7TnXv0fW4QJecJ0-6" edge="1">
          <mxGeometry width="50" height="50" relative="1" as="geometry">
            <mxPoint x="420" y="270" as="sourcePoint" />
            <mxPoint x="210" y="130" as="targetPoint" />
          </mxGeometry>
        </mxCell>
        <mxCell id="rQFfe7TnXv0fW4QJecJ0-12" value="" style="endArrow=classic;html=1;rounded=0;exitX=0.5;exitY=1;exitDx=0;exitDy=0;entryX=0.5;entryY=0;entryDx=0;entryDy=0;exitPerimeter=0;" parent="1" source="rQFfe7TnXv0fW4QJecJ0-56" target="rQFfe7TnXv0fW4QJecJ0-7" edge="1">
          <mxGeometry width="50" height="50" relative="1" as="geometry">
            <mxPoint x="420" y="270" as="sourcePoint" />
            <mxPoint x="120" y="220" as="targetPoint" />
          </mxGeometry>
        </mxCell>
        <mxCell id="rQFfe7TnXv0fW4QJecJ0-18" value="Elastic" style="shape=cylinder3;whiteSpace=wrap;html=1;boundedLbl=1;backgroundOutline=1;size=15;" parent="1" vertex="1">
          <mxGeometry x="392.5" y="840" width="95" height="150" as="geometry" />
        </mxCell>
        <mxCell id="rQFfe7TnXv0fW4QJecJ0-45" value="" style="endArrow=classic;html=1;rounded=0;entryX=0.5;entryY=0;entryDx=0;entryDy=0;entryPerimeter=0;exitX=0.5;exitY=1;exitDx=0;exitDy=0;startArrow=none;" parent="1" source="rQFfe7TnXv0fW4QJecJ0-52" target="rQFfe7TnXv0fW4QJecJ0-18" edge="1">
          <mxGeometry width="50" height="50" relative="1" as="geometry">
            <mxPoint x="500" y="790" as="sourcePoint" />
            <mxPoint x="600" y="820" as="targetPoint" />
          </mxGeometry>
        </mxCell>
        <mxCell id="jcfnj_XTG3l9BFHldg0O-1" value="Using REST" style="edgeLabel;html=1;align=center;verticalAlign=middle;resizable=0;points=[];" vertex="1" connectable="0" parent="rQFfe7TnXv0fW4QJecJ0-45">
          <mxGeometry x="-0.0233" y="2" relative="1" as="geometry">
            <mxPoint as="offset" />
          </mxGeometry>
        </mxCell>
        <mxCell id="rQFfe7TnXv0fW4QJecJ0-50" value="" style="endArrow=classic;html=1;rounded=0;exitX=0.5;exitY=1;exitDx=0;exitDy=0;entryX=0.5;entryY=0;entryDx=0;entryDy=0;" parent="1" source="rQFfe7TnXv0fW4QJecJ0-7" target="rQFfe7TnXv0fW4QJecJ0-52" edge="1">
          <mxGeometry width="50" height="50" relative="1" as="geometry">
            <mxPoint x="450" y="470" as="sourcePoint" />
            <mxPoint x="440" y="640" as="targetPoint" />
          </mxGeometry>
        </mxCell>
        <mxCell id="rQFfe7TnXv0fW4QJecJ0-51" value="" style="endArrow=classic;html=1;rounded=0;entryX=0.5;entryY=0;entryDx=0;entryDy=0;exitX=0.5;exitY=1;exitDx=0;exitDy=0;" parent="1" source="rQFfe7TnXv0fW4QJecJ0-6" target="rQFfe7TnXv0fW4QJecJ0-52" edge="1">
          <mxGeometry width="50" height="50" relative="1" as="geometry">
            <mxPoint x="320" y="470" as="sourcePoint" />
            <mxPoint x="440" y="640" as="targetPoint" />
          </mxGeometry>
        </mxCell>
        <mxCell id="rQFfe7TnXv0fW4QJecJ0-52" value="MS-DB&lt;br&gt;" style="ellipse;whiteSpace=wrap;html=1;aspect=fixed;" parent="1" vertex="1">
          <mxGeometry x="397.5" y="660" width="90" height="90" as="geometry" />
        </mxCell>
        <mxCell id="rQFfe7TnXv0fW4QJecJ0-56" value="" style="sketch=0;html=1;dashed=0;whitespace=wrap;fillColor=#2875E2;strokeColor=#ffffff;points=[[0.005,0.63,0],[0.1,0.2,0],[0.9,0.2,0],[0.5,0,0],[0.995,0.63,0],[0.72,0.99,0],[0.5,1,0],[0.28,0.99,0]];shape=mxgraph.kubernetes.icon;prIcon=api" parent="1" vertex="1">
          <mxGeometry x="380" y="175" width="80" height="80" as="geometry" />
        </mxCell>
      </root>
    </mxGraphModel>
  </diagram>
  <diagram id="cx9ELP2NZdnlZSR1v4LI" name="Services list">
    <mxGraphModel dx="954" dy="517" grid="1" gridSize="10" guides="1" tooltips="1" connect="1" arrows="1" fold="1" page="1" pageScale="1" pageWidth="827" pageHeight="1169" math="0" shadow="0">
      <root>
        <mxCell id="0" />
        <mxCell id="1" parent="0" />
        <mxCell id="m4BF-P6X6XQnN7LYEZRi-1" value="&lt;h1&gt;&lt;b&gt;&lt;u&gt;&lt;font style=&quot;font-size: 36px;&quot;&gt;Services:&lt;/font&gt;&lt;/u&gt;&lt;/b&gt;&lt;/h1&gt;&lt;font style=&quot;&quot; size=&quot;3&quot;&gt;1. Upload textual data&lt;br&gt;2. Search textual data&lt;br&gt;3. Secret Data Service (Vault Services)&lt;/font&gt;&lt;font style=&quot;&quot; size=&quot;3&quot;&gt;&lt;br&gt;4. Elastic log based system (Grafana / Kibana to present the data).&lt;/font&gt;&lt;font style=&quot;&quot; size=&quot;3&quot;&gt;&lt;br&gt;&lt;/font&gt;" style="text;html=1;align=center;verticalAlign=middle;resizable=0;points=[];autosize=1;strokeColor=none;fillColor=none;" parent="1" vertex="1">
          <mxGeometry x="200" y="95" width="500" height="170" as="geometry" />
        </mxCell>
      </root>
    </mxGraphModel>
  </diagram>
  <diagram id="iybOEvctmF7JJKe_ukz2" name="Flow add text data">
    <mxGraphModel dx="954" dy="517" grid="1" gridSize="10" guides="1" tooltips="1" connect="1" arrows="1" fold="1" page="1" pageScale="1" pageWidth="827" pageHeight="1169" math="0" shadow="0">
      <root>
        <mxCell id="0" />
        <mxCell id="1" parent="0" />
        <mxCell id="xfa4p78PV_mS-xUZAH7j-1" value="" style="shape=actor;whiteSpace=wrap;html=1;fontSize=14;" parent="1" vertex="1">
          <mxGeometry x="379.5" y="50" width="40" height="90" as="geometry" />
        </mxCell>
        <mxCell id="xfa4p78PV_mS-xUZAH7j-3" value="API" style="ellipse;whiteSpace=wrap;html=1;fontSize=14;" parent="1" vertex="1">
          <mxGeometry x="369" y="450" width="90" height="80" as="geometry" />
        </mxCell>
        <mxCell id="xfa4p78PV_mS-xUZAH7j-5" value="" style="endArrow=classic;html=1;rounded=0;fontSize=14;exitX=0.5;exitY=1;exitDx=0;exitDy=0;entryX=0.5;entryY=0;entryDx=0;entryDy=0;" parent="1" source="xfa4p78PV_mS-xUZAH7j-3" target="ckJ2nBFqYT7CHcgLm9rw-30" edge="1">
          <mxGeometry width="50" height="50" relative="1" as="geometry">
            <mxPoint x="884" y="645" as="sourcePoint" />
            <mxPoint x="414" y="600" as="targetPoint" />
          </mxGeometry>
        </mxCell>
        <mxCell id="LsdhIaO7eievEGYzSqau-1" value="POST" style="text;html=1;align=center;verticalAlign=middle;resizable=0;points=[];autosize=1;strokeColor=#6c8ebf;fillColor=#dae8fc;fontSize=14;" parent="1" vertex="1">
          <mxGeometry x="369.5" y="10" width="60" height="30" as="geometry" />
        </mxCell>
        <mxCell id="ckJ2nBFqYT7CHcgLm9rw-1" value="Using Redis Queue" style="rounded=0;whiteSpace=wrap;html=1;" parent="1" vertex="1">
          <mxGeometry x="120" y="800" width="120" height="60" as="geometry" />
        </mxCell>
        <mxCell id="ckJ2nBFqYT7CHcgLm9rw-2" value="Using RabbitMQ" style="rounded=0;whiteSpace=wrap;html=1;" parent="1" vertex="1">
          <mxGeometry x="600" y="800" width="120" height="60" as="geometry" />
        </mxCell>
        <mxCell id="ckJ2nBFqYT7CHcgLm9rw-14" value="Add data according to:&lt;br&gt;json (body), xml(body),&amp;nbsp; docx (file)" style="rounded=0;whiteSpace=wrap;html=1;fontSize=14;" parent="1" vertex="1">
          <mxGeometry x="284.5" y="140" width="230" height="50" as="geometry" />
        </mxCell>
        <mxCell id="ckJ2nBFqYT7CHcgLm9rw-15" value="" style="endArrow=classic;html=1;rounded=0;fontSize=14;exitX=0.5;exitY=1;exitDx=0;exitDy=0;entryX=0.5;entryY=0;entryDx=0;entryDy=0;" parent="1" source="ckJ2nBFqYT7CHcgLm9rw-14" target="ckJ2nBFqYT7CHcgLm9rw-20" edge="1">
          <mxGeometry width="50" height="50" relative="1" as="geometry">
            <mxPoint x="185" y="210" as="sourcePoint" />
            <mxPoint x="240" y="360" as="targetPoint" />
          </mxGeometry>
        </mxCell>
        <mxCell id="ckJ2nBFqYT7CHcgLm9rw-16" value="" style="endArrow=classic;html=1;rounded=0;fontSize=14;exitX=0.5;exitY=1;exitDx=0;exitDy=0;entryX=0.5;entryY=0;entryDx=0;entryDy=0;" parent="1" source="ckJ2nBFqYT7CHcgLm9rw-14" target="ckJ2nBFqYT7CHcgLm9rw-23" edge="1">
          <mxGeometry width="50" height="50" relative="1" as="geometry">
            <mxPoint x="365" y="180" as="sourcePoint" />
            <mxPoint x="360" y="270" as="targetPoint" />
          </mxGeometry>
        </mxCell>
        <mxCell id="ckJ2nBFqYT7CHcgLm9rw-20" value="json url:&lt;br&gt;:3000/add-data/json&lt;br&gt;&lt;br&gt;{&quot;title&quot;:&quot;title_of_data&quot;,&lt;br&gt;&quot;text&quot;:&quot;text_of_data&quot;&lt;br&gt;&amp;lt;author&amp;gt;OPTIONAL&amp;lt;/author&amp;gt;}" style="rounded=0;whiteSpace=wrap;html=1;fontSize=14;" parent="1" vertex="1">
          <mxGeometry x="159" y="240" width="199" height="160" as="geometry" />
        </mxCell>
        <mxCell id="ckJ2nBFqYT7CHcgLm9rw-23" value="xml url:&lt;br&gt;:3000/add-data/xml&lt;br&gt;&lt;br&gt;&amp;lt;payload&amp;gt;&lt;br&gt;&amp;lt;title&amp;gt;&quot;title_of_data&amp;lt;/title&amp;gt;&lt;br&gt;&amp;lt;text&amp;gt;text_of_data&amp;lt;/text&amp;gt;&lt;br&gt;&amp;lt;author&amp;gt;OPTIONAL&amp;lt;/author&amp;gt;&lt;br&gt;&lt;br&gt;&amp;lt;/payload&amp;gt;" style="rounded=0;whiteSpace=wrap;html=1;fontSize=14;" parent="1" vertex="1">
          <mxGeometry x="519.5" y="240" width="179" height="160" as="geometry" />
        </mxCell>
        <mxCell id="ckJ2nBFqYT7CHcgLm9rw-25" value="" style="endArrow=classic;html=1;rounded=0;fontSize=14;entryX=0.5;entryY=0;entryDx=0;entryDy=0;exitX=0.5;exitY=1;exitDx=0;exitDy=0;" parent="1" source="ckJ2nBFqYT7CHcgLm9rw-20" target="xfa4p78PV_mS-xUZAH7j-3" edge="1">
          <mxGeometry width="50" height="50" relative="1" as="geometry">
            <mxPoint x="450" y="510" as="sourcePoint" />
            <mxPoint x="500" y="460" as="targetPoint" />
          </mxGeometry>
        </mxCell>
        <mxCell id="ckJ2nBFqYT7CHcgLm9rw-26" value="" style="endArrow=classic;html=1;rounded=0;fontSize=14;entryX=0.5;entryY=0;entryDx=0;entryDy=0;exitX=0.5;exitY=1;exitDx=0;exitDy=0;" parent="1" source="ckJ2nBFqYT7CHcgLm9rw-23" target="xfa4p78PV_mS-xUZAH7j-3" edge="1">
          <mxGeometry width="50" height="50" relative="1" as="geometry">
            <mxPoint x="229.5" y="415" as="sourcePoint" />
            <mxPoint x="424" y="445" as="targetPoint" />
          </mxGeometry>
        </mxCell>
        <mxCell id="ckJ2nBFqYT7CHcgLm9rw-30" value="Normalize data&amp;nbsp;&lt;br&gt;(for example: xml -&amp;gt; json)&lt;br&gt;&lt;br&gt;{&quot;id&quot;:&quot;id&quot;,&quot;title&quot;:&quot;title&quot;,&quot;text&quot;:&quot;text&quot;,&quot;date&quot;:&quot;date&quot;,&quot;author&quot;:&quot;ip / the name that was received before&quot;" style="rounded=1;whiteSpace=wrap;html=1;fontSize=14;" parent="1" vertex="1">
          <mxGeometry x="192.62" y="560" width="442.75" height="85" as="geometry" />
        </mxCell>
        <mxCell id="ckJ2nBFqYT7CHcgLm9rw-31" value="" style="endArrow=classic;html=1;rounded=0;fontSize=14;entryX=0.5;entryY=0;entryDx=0;entryDy=0;exitX=0.5;exitY=1;exitDx=0;exitDy=0;" parent="1" source="ckJ2nBFqYT7CHcgLm9rw-30" target="ckJ2nBFqYT7CHcgLm9rw-1" edge="1">
          <mxGeometry width="50" height="50" relative="1" as="geometry">
            <mxPoint x="450" y="750" as="sourcePoint" />
            <mxPoint x="500" y="700" as="targetPoint" />
          </mxGeometry>
        </mxCell>
        <mxCell id="ckJ2nBFqYT7CHcgLm9rw-32" value="" style="endArrow=classic;html=1;rounded=0;fontSize=14;entryX=0.5;entryY=0;entryDx=0;entryDy=0;exitX=0.5;exitY=1;exitDx=0;exitDy=0;" parent="1" source="ckJ2nBFqYT7CHcgLm9rw-30" target="ckJ2nBFqYT7CHcgLm9rw-2" edge="1">
          <mxGeometry width="50" height="50" relative="1" as="geometry">
            <mxPoint x="423.9949999999999" y="655" as="sourcePoint" />
            <mxPoint x="99" y="710" as="targetPoint" />
          </mxGeometry>
        </mxCell>
        <mxCell id="ckJ2nBFqYT7CHcgLm9rw-38" value="ms-db" style="ellipse;whiteSpace=wrap;html=1;fontSize=14;" parent="1" vertex="1">
          <mxGeometry x="390" y="930" width="90" height="80" as="geometry" />
        </mxCell>
        <mxCell id="ckJ2nBFqYT7CHcgLm9rw-39" value="" style="endArrow=classic;html=1;rounded=0;fontSize=14;exitX=0.5;exitY=1;exitDx=0;exitDy=0;entryX=0.5;entryY=0;entryDx=0;entryDy=0;entryPerimeter=0;" parent="1" source="ckJ2nBFqYT7CHcgLm9rw-38" target="BY3z2VM2IYgckpkSLGnl-1" edge="1">
          <mxGeometry width="50" height="50" relative="1" as="geometry">
            <mxPoint x="460.5" y="850" as="sourcePoint" />
            <mxPoint x="435.5" y="1020" as="targetPoint" />
          </mxGeometry>
        </mxCell>
        <mxCell id="BY3z2VM2IYgckpkSLGnl-1" value="Elastic" style="shape=cylinder3;whiteSpace=wrap;html=1;boundedLbl=1;backgroundOutline=1;size=15;" parent="1" vertex="1">
          <mxGeometry x="405" y="1070" width="60" height="80" as="geometry" />
        </mxCell>
        <mxCell id="BY3z2VM2IYgckpkSLGnl-2" value="rest" style="text;html=1;align=center;verticalAlign=middle;resizable=0;points=[];autosize=1;strokeColor=none;fillColor=none;fontSize=14;" parent="1" vertex="1">
          <mxGeometry x="453.5" y="1000" width="50" height="30" as="geometry" />
        </mxCell>
        <mxCell id="BY3z2VM2IYgckpkSLGnl-3" value="" style="endArrow=classic;html=1;rounded=0;fontSize=14;entryX=0.5;entryY=0;entryDx=0;entryDy=0;exitX=0.5;exitY=1;exitDx=0;exitDy=0;" parent="1" source="ckJ2nBFqYT7CHcgLm9rw-1" target="ckJ2nBFqYT7CHcgLm9rw-38" edge="1">
          <mxGeometry width="50" height="50" relative="1" as="geometry">
            <mxPoint x="450" y="950" as="sourcePoint" />
            <mxPoint x="500" y="900" as="targetPoint" />
          </mxGeometry>
        </mxCell>
        <mxCell id="TO9IUZlQYuUeLtzHmL3I-1" value="" style="endArrow=classic;html=1;rounded=0;fontSize=14;entryX=0.5;entryY=0;entryDx=0;entryDy=0;exitX=0.5;exitY=1;exitDx=0;exitDy=0;" parent="1" source="ckJ2nBFqYT7CHcgLm9rw-2" target="ckJ2nBFqYT7CHcgLm9rw-38" edge="1">
          <mxGeometry width="50" height="50" relative="1" as="geometry">
            <mxPoint x="99" y="870" as="sourcePoint" />
            <mxPoint x="400" y="980" as="targetPoint" />
          </mxGeometry>
        </mxCell>
      </root>
    </mxGraphModel>
  </diagram>
</mxfile>
